<svg xmlns="http://www.w3.org/2000/svg" width="57" height="42" viewBox="0 0 57 42" fill="none">
  <path fill-rule="evenodd" clip-rule="evenodd" d="M34.8993 12.4115C38.1409 12.4115 40.7688 9.78362 40.7688 6.54198C40.7688 3.30035 38.1409 0.672485 34.8993 0.672485C31.6576 0.672485 29.0298 3.30035 29.0298 6.54198C29.0298 9.78362 31.6576 12.4115 34.8993 12.4115Z" fill="#09B6AE"/>
  <path fill-rule="evenodd" clip-rule="evenodd" d="M34.899 26.4943C38.1407 26.4943 40.7685 23.8667 40.7685 20.6255C40.7685 17.3843 38.1407 14.7568 34.899 14.7568C31.6574 14.7568 29.0295 17.3843 29.0295 20.6255C29.0295 23.8667 31.6574 26.4943 34.899 26.4943Z" fill="#35A798"/>
  <path fill-rule="evenodd" clip-rule="evenodd" d="M34.899 41.1025C38.1407 41.1025 40.7685 38.4746 40.7685 35.233C40.7685 31.9913 38.1407 29.3635 34.899 29.3635C31.6574 29.3635 29.0295 31.9913 29.0295 35.233C29.0295 38.4746 31.6574 41.1025 34.899 41.1025Z" fill="#9F7A6F"/>
  <path fill-rule="evenodd" clip-rule="evenodd" d="M20.2918 26.4941C23.533 26.4941 26.1605 23.8666 26.1605 20.6254C26.1605 17.3842 23.533 14.7567 20.2918 14.7567C17.0506 14.7567 14.4231 17.3842 14.4231 20.6254C14.4231 23.8666 17.0506 26.4941 20.2918 26.4941Z" fill="#EB5952"/>
  <path fill-rule="evenodd" clip-rule="evenodd" d="M20.2911 41.1024C23.5323 41.1024 26.1598 38.4745 26.1598 35.2329C26.1598 31.9913 23.5323 29.3634 20.2911 29.3634C17.0499 29.3634 14.4224 31.9913 14.4224 35.2329C14.4224 38.4745 17.0499 41.1024 20.2911 41.1024Z" fill="#A74DA0"/>
  <path fill-rule="evenodd" clip-rule="evenodd" d="M6.20739 41.1024C9.44903 41.1024 12.0769 38.4745 12.0769 35.2329C12.0769 31.9913 9.44903 29.3634 6.20739 29.3634C2.96575 29.3634 0.337891 31.9913 0.337891 35.2329C0.337891 38.4745 2.96575 41.1024 6.20739 41.1024Z" fill="#5D40F6"/>
</svg>